<svg width="62" height="61" viewBox="0 0 62 61" fill="none" xmlns="http://www.w3.org/2000/svg">
<path d="M0 0H57C59.7614 0 62 2.23858 62 5V56C62 58.7614 59.7614 61 57 61H5C2.23858 61 0 58.7614 0 56V0Z" fill="url(#paint0_linear)"/>
<g clip-path="url(#clip0)">
<path d="M30.5 10.6719C18.9892 10.6719 9.67188 19.9873 9.67188 31.5C9.67188 43.0108 18.9873 52.3281 30.5 52.3281C34.5442 52.3281 38.5072 51.1406 41.8722 48.95C42.8804 48.2937 43.1004 46.9102 42.3384 45.9793L41.4837 44.9351C40.8395 44.1481 39.705 43.9553 38.8489 44.5044C36.3722 46.0929 33.4658 46.9531 30.5 46.9531C21.9791 46.9531 15.0469 40.0209 15.0469 31.5C15.0469 22.9791 21.9791 16.0469 30.5 16.0469C38.9101 16.0469 45.9531 20.886 45.9531 29.4844C45.9531 32.7418 44.1816 36.1815 41.0677 36.5133C39.6107 36.4751 39.6476 35.4335 39.936 33.9917L41.904 23.8204C42.1447 22.5767 41.1919 21.4219 39.9251 21.4219H36.1474C35.8685 21.4219 35.5993 21.5245 35.3913 21.7103C35.1832 21.8961 35.0508 22.152 35.0194 22.4291L35.0185 22.4368C33.7842 20.9334 31.6215 20.6081 29.9819 20.6081C23.7183 20.6081 18.4062 25.8347 18.4062 33.3283C18.4062 38.8128 21.4956 42.2198 26.4687 42.2198C28.735 42.2198 31.2868 40.9065 32.7668 39.0004C33.5665 41.8646 36.1777 41.8645 38.7054 41.8645C47.8519 41.8645 51.3281 35.8502 51.3281 29.4844C51.3281 18.0334 42.0918 10.6719 30.5 10.6719ZM28.6792 36.2392C26.8106 36.2392 25.6499 34.9272 25.6499 32.8151C25.6499 29.0364 28.2349 26.707 30.5739 26.707C32.4461 26.707 33.5638 27.987 33.5638 30.1311C33.5638 33.9155 30.7189 36.2392 28.6792 36.2392Z" fill="white"/>
</g>
<defs>
<linearGradient id="paint0_linear" x1="-3" y1="-20" x2="58.5" y2="72.5" gradientUnits="userSpaceOnUse">
<stop stop-color="#A8C0FF"/>
<stop offset="1" stop-color="#F2D7E0"/>
</linearGradient>
<clipPath id="clip0">
<path d="M9 10H47C49.7614 10 52 12.2386 52 15V48C52 50.7614 49.7614 53 47 53H14C11.2386 53 9 50.7614 9 48V10Z" fill="white"/>
</clipPath>
</defs>
</svg>
