<svg width="241" height="241" viewBox="0 0 241 241" fill="none" xmlns="http://www.w3.org/2000/svg">
<path d="M141.79 122.97C145.69 122.97 147.09 121.4 147.09 118.5V114.87C147.09 112.06 145.69 110.49 141.79 110.49C138.07 110.49 136.67 112.06 136.67 114.87V118.5C136.67 121.4 138.07 122.97 141.79 122.97ZM142.87 133.14H146.25L156.49 110.9H153.1L142.87 133.14ZM143.54 118.01C143.54 119.01 143.04 119.58 141.79 119.58C141.584 119.603 141.375 119.58 141.179 119.513C140.983 119.445 140.804 119.334 140.657 119.188C140.509 119.042 140.396 118.865 140.325 118.67C140.255 118.475 140.229 118.266 140.25 118.06V115.58C140.25 114.51 140.74 113.93 141.81 113.93C143.06 113.93 143.56 114.51 143.56 115.58L143.54 118.01ZM157.54 133.72C161.34 133.72 162.82 132.07 162.82 129.17V125.53C162.82 122.72 161.34 121.15 157.54 121.15C153.74 121.15 152.33 122.72 152.33 125.53V129.17C152.33 132.07 153.82 133.72 157.54 133.72ZM159.27 128.72C159.27 129.72 158.78 130.28 157.54 130.28C156.3 130.28 155.88 129.71 155.88 128.72V126.23C155.88 125.08 156.38 124.58 157.54 124.58C158.7 124.58 159.27 125.08 159.27 126.23V128.72Z" fill="#C1D6D6"/>
<path d="M102.35 110.36V103.16H77.96V110.36H94.08L79.7 141.86H87.88L102.35 110.36ZM117.9 142.52C128.48 142.52 132.28 138.06 132.28 130.29V128.88C132.28 121.88 129.14 117.64 118.81 117.64H116.57L117.15 110.36H131.04L131.7 103.16H109.88L108.06 124.91H117.9C122.03 124.91 124.18 126.24 124.18 129.46V130.61C124.18 133.92 122.03 135.33 117.9 135.33C114.426 135.316 110.962 134.954 107.56 134.25L106.4 141.37C110.185 142.138 114.038 142.523 117.9 142.52Z" fill="#C1D6D6"/>
<path fill-rule="evenodd" clip-rule="evenodd" d="M120.38 0.5C144.09 0.5 167.268 7.53109 186.983 20.7041C206.697 33.8771 222.062 52.6004 231.136 74.5062C240.209 96.412 242.582 120.516 237.956 143.771C233.329 167.026 221.911 188.386 205.144 205.151C188.378 221.917 167.016 233.333 143.761 237.958C120.506 242.582 96.402 240.207 74.497 231.132C52.5919 222.057 33.8699 206.69 20.6985 186.974C7.52717 167.259 0.498023 144.08 0.5 120.37C0.505304 88.5784 13.1375 58.0906 35.6185 35.6114C58.0995 13.1323 88.5884 0.502651 120.38 0.5ZM120.38 31.86C137.888 31.862 155.001 37.0555 169.557 46.7839C184.113 56.5122 195.458 70.3384 202.156 86.5141C208.854 102.69 210.605 120.488 207.187 137.659C203.77 154.83 195.337 170.602 182.956 182.98C170.575 195.359 154.801 203.787 137.63 207.201C120.458 210.615 102.66 208.86 86.4856 202.158C70.3115 195.456 56.4878 184.109 46.7628 169.551C37.0377 154.993 31.848 137.878 31.85 120.37C31.8606 96.8955 41.1919 74.3857 57.7928 57.7886C74.3936 41.1915 96.9055 31.8653 120.38 31.86Z" fill="#F5F5F5" stroke="#E6E6E6" stroke-miterlimit="10"/>
<path fill-rule="evenodd" clip-rule="evenodd" d="M118.64 238.45V210.62C100.941 210.275 83.7346 204.734 69.161 194.685C54.5874 184.637 43.2903 170.524 36.6755 154.105C30.0608 137.685 28.4203 119.682 31.9583 102.337C35.4962 84.9925 44.0564 69.0708 56.5737 56.5535C69.091 44.0363 85.0127 35.476 102.358 31.9381C119.703 28.4001 137.705 30.0406 154.125 36.6553C170.545 43.2701 184.657 54.5672 194.705 69.1408C204.754 83.7144 210.295 100.921 210.64 118.62H238.45C238.11 95.4164 230.939 72.8275 217.835 53.6754C204.731 34.5232 186.275 19.6568 164.771 10.9333C143.267 2.2099 119.669 0.0161533 96.9254 4.62619C74.1819 9.23622 53.3009 20.4456 36.8911 36.8541C20.4813 53.2626 9.27011 74.1426 4.65818 96.8857C0.0462461 119.629 2.23801 143.227 10.9597 164.731C19.6813 186.236 34.5462 204.694 53.6973 217.8C72.8484 230.905 95.4366 238.077 118.64 238.42V238.45Z" fill="#C1D6D6"/>
</svg>
