<svg width="62" height="61" viewBox="0 0 62 61" fill="none" xmlns="http://www.w3.org/2000/svg">
<path d="M0 0H57C59.7614 0 62 2.23858 62 5V56C62 58.7614 59.7614 61 57 61H5C2.23858 61 0 58.7614 0 56V0Z" fill="url(#paint0_linear)"/>
<path d="M40.8 9H21.2C18.8813 9 17 10.8477 17 13.125V48.875C17 51.1523 18.8813 53 21.2 53H40.8C43.1187 53 45 51.1523 45 48.875V13.125C45 10.8477 43.1187 9 40.8 9ZM31 50.25C29.4513 50.25 28.2 49.0211 28.2 47.5C28.2 45.9789 29.4513 44.75 31 44.75C32.5487 44.75 33.8 45.9789 33.8 47.5C33.8 49.0211 32.5487 50.25 31 50.25ZM40.8 40.9688C40.8 41.5359 40.3275 42 39.75 42H22.25C21.6725 42 21.2 41.5359 21.2 40.9688V14.1562C21.2 13.5891 21.6725 13.125 22.25 13.125H39.75C40.3275 13.125 40.8 13.5891 40.8 14.1562V40.9688Z" fill="white"/>
<defs>
<linearGradient id="paint0_linear" x1="-3" y1="-20" x2="58.5" y2="72.5" gradientUnits="userSpaceOnUse">
<stop stop-color="#A8C0FF"/>
<stop offset="1" stop-color="#F2D7E0"/>
</linearGradient>
</defs>
</svg>
