<svg width="62" height="61" viewBox="0 0 62 61" fill="none" xmlns="http://www.w3.org/2000/svg">
<path d="M0 0H57C59.7614 0 62 2.23858 62 5V56C62 58.7614 59.7614 61 57 61H5C2.23858 61 0 58.7614 0 56V0Z" fill="url(#paint0_linear)"/>
<path d="M30.5 30.5C36.6547 30.5 41.6429 25.4639 41.6429 19.25C41.6429 13.0361 36.6547 8 30.5 8C24.3453 8 19.3571 13.0361 19.3571 19.25C19.3571 25.4639 24.3453 30.5 30.5 30.5ZM38.3 33.3125H36.8462C34.9136 34.209 32.7634 34.7188 30.5 34.7188C28.2366 34.7188 26.0951 34.209 24.1538 33.3125H22.7C16.2406 33.3125 11 38.6035 11 45.125V48.7812C11 51.1104 12.8717 53 15.1786 53H45.8214C48.1283 53 50 51.1104 50 48.7812V45.125C50 38.6035 44.7594 33.3125 38.3 33.3125Z" fill="white"/>
<defs>
<linearGradient id="paint0_linear" x1="-3" y1="-20" x2="58.5" y2="72.5" gradientUnits="userSpaceOnUse">
<stop stop-color="#A8C0FF"/>
<stop offset="1" stop-color="#F2D7E0"/>
</linearGradient>
</defs>
</svg>
