<svg width="62" height="61" viewBox="0 0 62 61" fill="none" xmlns="http://www.w3.org/2000/svg">
<path d="M0 0H57C59.7614 0 62 2.23858 62 5V56C62 58.7614 59.7614 61 57 61H5C2.23858 61 0 58.7614 0 56V0Z" fill="url(#paint0_linear)"/>
<g clip-path="url(#clip0)">
<path d="M50 24.4063C50 31.8104 43.9978 37.8125 36.5938 37.8125C35.7391 37.8125 34.9035 37.7316 34.0933 37.5787L32.2642 39.6364C32.0927 39.8294 31.8823 39.9838 31.6468 40.0896C31.4112 40.1953 31.156 40.25 30.8978 40.25H28.0625V43.2969C28.0625 44.3065 27.244 45.125 26.2344 45.125H23.1875V48.1719C23.1875 49.1815 22.369 50 21.3594 50H12.8281C11.8185 50 11 49.1815 11 48.1719V42.226C11 41.7411 11.1926 41.2761 11.5354 40.9333L23.8602 28.6085C23.4242 27.2866 23.1875 25.8742 23.1875 24.4062C23.1875 17.0022 29.1896 11.0001 36.5937 11C44.0196 10.9999 50 16.9803 50 24.4063ZM36.5938 20.75C36.5938 22.7693 38.2307 24.4062 40.25 24.4062C42.2693 24.4062 43.9062 22.7693 43.9062 20.75C43.9062 18.7307 42.2693 17.0938 40.25 17.0938C38.2307 17.0938 36.5938 18.7307 36.5938 20.75Z" fill="white"/>
</g>
<defs>
<linearGradient id="paint0_linear" x1="-3" y1="-20" x2="58.5" y2="72.5" gradientUnits="userSpaceOnUse">
<stop stop-color="#A8C0FF"/>
<stop offset="1" stop-color="#F2D7E0"/>
</linearGradient>
<clipPath id="clip0">
<path d="M11 11H45C47.7614 11 50 13.2386 50 16V45C50 47.7614 47.7614 50 45 50H16C13.2386 50 11 47.7614 11 45V11Z" fill="white"/>
</clipPath>
</defs>
</svg>
