<svg width="267" height="267" viewBox="0 0 267 267" fill="none" xmlns="http://www.w3.org/2000/svg">
<g filter="url(#filter0_d)">
<path d="M147.79 126.97C151.69 126.97 153.09 125.4 153.09 122.5V118.87C153.09 116.06 151.69 114.49 147.79 114.49C144.07 114.49 142.67 116.06 142.67 118.87V122.5C142.67 125.4 144.07 126.97 147.79 126.97ZM148.87 137.14H152.25L162.49 114.9H159.1L148.87 137.14ZM149.54 122.01C149.54 123.01 149.04 123.58 147.79 123.58C147.584 123.603 147.375 123.58 147.179 123.513C146.983 123.445 146.804 123.334 146.657 123.188C146.509 123.042 146.396 122.865 146.325 122.67C146.255 122.475 146.229 122.266 146.25 122.06V119.58C146.25 118.51 146.74 117.93 147.81 117.93C149.06 117.93 149.56 118.51 149.56 119.58L149.54 122.01ZM163.54 137.72C167.34 137.72 168.82 136.07 168.82 133.17V129.53C168.82 126.72 167.34 125.15 163.54 125.15C159.74 125.15 158.33 126.72 158.33 129.53V133.17C158.33 136.07 159.82 137.72 163.54 137.72ZM165.27 132.72C165.27 133.72 164.78 134.28 163.54 134.28C162.3 134.28 161.88 133.71 161.88 132.72V130.23C161.88 129.08 162.38 128.58 163.54 128.58C164.7 128.58 165.27 129.08 165.27 130.23V132.72Z" fill="#C1D6D6"/>
<path d="M108.35 114.36V107.16H83.96V114.36H100.08L85.7 145.86H93.88L108.35 114.36ZM123.9 146.52C134.48 146.52 138.28 142.06 138.28 134.29V132.88C138.28 125.88 135.14 121.64 124.81 121.64H122.57L123.15 114.36H137.04L137.7 107.16H115.88L114.06 128.91H123.9C128.03 128.91 130.18 130.24 130.18 133.46V134.61C130.18 137.92 128.03 139.33 123.9 139.33C120.426 139.316 116.962 138.954 113.56 138.25L112.4 145.37C116.185 146.138 120.038 146.523 123.9 146.52Z" fill="#C1D6D6"/>
<path fill-rule="evenodd" clip-rule="evenodd" d="M126.38 4.5C150.09 4.5 173.268 11.5311 192.983 24.7041C212.697 37.8771 228.062 56.6004 237.136 78.5062C246.209 100.412 248.582 124.516 243.956 147.771C239.329 171.026 227.911 192.386 211.144 209.151C194.378 225.917 173.016 237.333 149.761 241.958C126.506 246.582 102.402 244.207 80.497 235.132C58.5919 226.057 39.8699 210.69 26.6985 190.974C13.5272 171.259 6.49802 148.08 6.5 124.37C6.5053 92.5784 19.1375 62.0906 41.6185 39.6114C64.0995 17.1323 94.5884 4.50265 126.38 4.5ZM126.38 35.86C143.888 35.862 161.001 41.0555 175.557 50.7839C190.113 60.5122 201.458 74.3384 208.156 90.5141C214.854 106.69 216.605 124.488 213.187 141.659C209.77 158.83 201.337 174.602 188.956 186.98C176.575 199.359 160.801 207.787 143.63 211.201C126.458 214.615 108.66 212.86 92.4856 206.158C76.3115 199.456 62.4878 188.109 52.7628 173.551C43.0377 158.993 37.848 141.878 37.85 124.37C37.8606 100.895 47.1919 78.3857 63.7928 61.7886C80.3936 45.1915 102.905 35.8653 126.38 35.86Z" fill="#F5F5F5" stroke="#E6E6E6" stroke-miterlimit="10"/>
<path fill-rule="evenodd" clip-rule="evenodd" d="M124.64 242.45V214.62C106.941 214.275 89.7346 208.734 75.161 198.685C60.5874 188.637 49.2903 174.524 42.6755 158.105C36.0608 141.685 34.4203 123.682 37.9583 106.337C41.4962 88.9925 50.0564 73.0708 62.5737 60.5535C75.091 48.0363 91.0127 39.476 108.358 35.9381C125.703 32.4001 143.705 34.0406 160.125 40.6553C176.545 47.2701 190.657 58.5672 200.705 73.1408C210.754 87.7144 216.295 104.921 216.64 122.62H244.45C244.11 99.4164 236.939 76.8275 223.835 57.6754C210.731 38.5232 192.275 23.6568 170.771 14.9333C149.267 6.2099 125.669 4.01615 102.925 8.62619C80.1819 13.2362 59.3009 24.4456 42.8911 40.8541C26.4813 57.2626 15.2701 78.1426 10.6582 100.886C6.04625 123.629 8.23801 147.227 16.9597 168.731C25.6813 190.236 40.5462 208.694 59.6973 221.8C78.8484 234.905 101.437 242.077 124.64 242.42V242.45Z" fill="#C1D6D6"/>
</g>
<defs>
<filter id="filter0_d" x="0" y="0" width="266.76" height="266.76" filterUnits="userSpaceOnUse" color-interpolation-filters="sRGB">
<feFlood flood-opacity="0" result="BackgroundImageFix"/>
<feColorMatrix in="SourceAlpha" type="matrix" values="0 0 0 0 0 0 0 0 0 0 0 0 0 0 0 0 0 0 127 0"/>
<feOffset dx="7" dy="9"/>
<feGaussianBlur stdDeviation="6.5"/>
<feColorMatrix type="matrix" values="0 0 0 0 0 0 0 0 0 0 0 0 0 0 0 0 0 0 0.25 0"/>
<feBlend mode="normal" in2="BackgroundImageFix" result="effect1_dropShadow"/>
<feBlend mode="normal" in="SourceGraphic" in2="effect1_dropShadow" result="shape"/>
</filter>
</defs>
</svg>
